<svg width="168" height="39" viewBox="0 0 168 39" fill="none" xmlns="http://www.w3.org/2000/svg">
<rect width="40" height="39" rx="6" fill="#0033A0" fill-opacity="0.52"/>
<path d="M11.68 14.356V19.42L14.416 21.052H19.36V18.244H14.608V15.532H19.36V12.7H14.416L11.68 14.356ZM28.216 19.9V24.868L25.384 26.5H20.536V23.788H25.192V21.052H20.44V18.244H25.384L28.216 19.9ZM14.704 22.132H11.68V24.868L14.488 26.5H19.36V23.788H14.704V22.132ZM28.216 17.164H25.192V15.532H20.44V12.7H25.384L28.216 14.356V17.164Z" fill="#F5F5F5"/>
<path d="M52.296 28.168C51.176 28.168 50.168 27.976 49.272 27.592C48.376 27.192 47.672 26.632 47.16 25.912C46.648 25.192 46.392 24.352 46.392 23.392H49.32C49.384 24.112 49.664 24.704 50.16 25.168C50.672 25.632 51.384 25.864 52.296 25.864C53.24 25.864 53.976 25.64 54.504 25.192C55.032 24.728 55.296 24.136 55.296 23.416C55.296 22.856 55.128 22.4 54.792 22.048C54.472 21.696 54.064 21.424 53.568 21.232C53.088 21.04 52.416 20.832 51.552 20.608C50.464 20.32 49.576 20.032 48.888 19.744C48.216 19.44 47.64 18.976 47.16 18.352C46.68 17.728 46.44 16.896 46.44 15.856C46.44 14.896 46.68 14.056 47.16 13.336C47.64 12.616 48.312 12.064 49.176 11.68C50.04 11.296 51.04 11.104 52.176 11.104C53.792 11.104 55.112 11.512 56.136 12.328C57.176 13.128 57.752 14.232 57.864 15.64H54.84C54.792 15.032 54.504 14.512 53.976 14.08C53.448 13.648 52.752 13.432 51.888 13.432C51.104 13.432 50.464 13.632 49.968 14.032C49.472 14.432 49.224 15.008 49.224 15.76C49.224 16.272 49.376 16.696 49.68 17.032C50 17.352 50.4 17.608 50.88 17.8C51.36 17.992 52.016 18.2 52.848 18.424C53.952 18.728 54.848 19.032 55.536 19.336C56.24 19.64 56.832 20.112 57.312 20.752C57.808 21.376 58.056 22.216 58.056 23.272C58.056 24.12 57.824 24.92 57.36 25.672C56.912 26.424 56.248 27.032 55.368 27.496C54.504 27.944 53.48 28.168 52.296 28.168ZM66.2764 21.4L72.3724 28H68.6764L63.7804 22.312V28H61.0444V10.24H63.7804V20.56L68.5804 14.776H72.3724L66.2764 21.4ZM85.9974 14.776L77.8854 34.216H75.0534L77.7414 27.784L72.5334 14.776H75.5814L79.3014 24.856L83.1654 14.776H85.9974ZM96.4862 28L92.6462 21.328H90.5582V28H87.8222V11.32H93.5822C94.8622 11.32 95.9422 11.544 96.8222 11.992C97.7182 12.44 98.3822 13.04 98.8142 13.792C99.2622 14.544 99.4862 15.384 99.4862 16.312C99.4862 17.4 99.1662 18.392 98.5262 19.288C97.9022 20.168 96.9342 20.768 95.6222 21.088L99.7502 28H96.4862ZM90.5582 19.144H93.5822C94.6062 19.144 95.3742 18.888 95.8862 18.376C96.4142 17.864 96.6782 17.176 96.6782 16.312C96.6782 15.448 96.4222 14.776 95.9102 14.296C95.3982 13.8 94.6222 13.552 93.5822 13.552H90.5582V19.144ZM108.482 28.216C107.234 28.216 106.106 27.936 105.098 27.376C104.09 26.8 103.298 26 102.722 24.976C102.146 23.936 101.858 22.736 101.858 21.376C101.858 20.032 102.154 18.84 102.746 17.8C103.338 16.76 104.146 15.96 105.17 15.4C106.194 14.84 107.338 14.56 108.602 14.56C109.866 14.56 111.01 14.84 112.034 15.4C113.058 15.96 113.866 16.76 114.458 17.8C115.05 18.84 115.346 20.032 115.346 21.376C115.346 22.72 115.042 23.912 114.434 24.952C113.826 25.992 112.994 26.8 111.938 27.376C110.898 27.936 109.746 28.216 108.482 28.216ZM108.482 25.84C109.186 25.84 109.842 25.672 110.45 25.336C111.074 25 111.578 24.496 111.962 23.824C112.346 23.152 112.538 22.336 112.538 21.376C112.538 20.416 112.354 19.608 111.986 18.952C111.618 18.28 111.13 17.776 110.522 17.44C109.914 17.104 109.258 16.936 108.554 16.936C107.85 16.936 107.194 17.104 106.586 17.44C105.994 17.776 105.522 18.28 105.17 18.952C104.818 19.608 104.642 20.416 104.642 21.376C104.642 22.8 105.002 23.904 105.722 24.688C106.458 25.456 107.378 25.84 108.482 25.84ZM129.787 14.776V28H127.051V26.44C126.619 26.984 126.051 27.416 125.347 27.736C124.659 28.04 123.923 28.192 123.139 28.192C122.099 28.192 121.163 27.976 120.331 27.544C119.515 27.112 118.867 26.472 118.387 25.624C117.923 24.776 117.691 23.752 117.691 22.552V14.776H120.403V22.144C120.403 23.328 120.699 24.24 121.291 24.88C121.883 25.504 122.691 25.816 123.715 25.816C124.739 25.816 125.547 25.504 126.139 24.88C126.747 24.24 127.051 23.328 127.051 22.144V14.776H129.787ZM136.349 17.008V24.328C136.349 24.824 136.461 25.184 136.685 25.408C136.925 25.616 137.325 25.72 137.885 25.72H139.565V28H137.405C136.173 28 135.229 27.712 134.573 27.136C133.917 26.56 133.589 25.624 133.589 24.328V17.008H132.029V14.776H133.589V11.488H136.349V14.776H139.565V17.008H136.349ZM153.967 21.064C153.967 21.56 153.935 22.008 153.871 22.408H143.767C143.847 23.464 144.239 24.312 144.943 24.952C145.647 25.592 146.511 25.912 147.535 25.912C149.007 25.912 150.047 25.296 150.655 24.064H153.607C153.207 25.28 152.479 26.28 151.423 27.064C150.383 27.832 149.087 28.216 147.535 28.216C146.271 28.216 145.135 27.936 144.127 27.376C143.135 26.8 142.351 26 141.775 24.976C141.215 23.936 140.935 22.736 140.935 21.376C140.935 20.016 141.207 18.824 141.751 17.8C142.311 16.76 143.087 15.96 144.079 15.4C145.087 14.84 146.239 14.56 147.535 14.56C148.783 14.56 149.895 14.832 150.871 15.376C151.847 15.92 152.607 16.688 153.151 17.68C153.695 18.656 153.967 19.784 153.967 21.064ZM151.111 20.2C151.095 19.192 150.735 18.384 150.031 17.776C149.327 17.168 148.455 16.864 147.415 16.864C146.471 16.864 145.663 17.168 144.991 17.776C144.319 18.368 143.919 19.176 143.791 20.2H151.111ZM161.219 28.216C160.179 28.216 159.243 28.032 158.411 27.664C157.595 27.28 156.947 26.768 156.467 26.128C155.987 25.472 155.731 24.744 155.699 23.944H158.531C158.579 24.504 158.843 24.976 159.323 25.36C159.819 25.728 160.435 25.912 161.171 25.912C161.939 25.912 162.531 25.768 162.947 25.48C163.379 25.176 163.595 24.792 163.595 24.328C163.595 23.832 163.355 23.464 162.875 23.224C162.411 22.984 161.667 22.72 160.643 22.432C159.651 22.16 158.843 21.896 158.219 21.64C157.595 21.384 157.051 20.992 156.587 20.464C156.139 19.936 155.915 19.24 155.915 18.376C155.915 17.672 156.123 17.032 156.539 16.456C156.955 15.864 157.547 15.4 158.315 15.064C159.099 14.728 159.995 14.56 161.003 14.56C162.507 14.56 163.715 14.944 164.627 15.712C165.555 16.464 166.051 17.496 166.115 18.808H163.379C163.331 18.216 163.091 17.744 162.659 17.392C162.227 17.04 161.643 16.864 160.907 16.864C160.187 16.864 159.635 17 159.251 17.272C158.867 17.544 158.675 17.904 158.675 18.352C158.675 18.704 158.803 19 159.059 19.24C159.315 19.48 159.627 19.672 159.995 19.816C160.363 19.944 160.907 20.112 161.627 20.32C162.587 20.576 163.371 20.84 163.979 21.112C164.603 21.368 165.139 21.752 165.587 22.264C166.035 22.776 166.267 23.456 166.283 24.304C166.283 25.056 166.075 25.728 165.659 26.32C165.243 26.912 164.651 27.376 163.883 27.712C163.131 28.048 162.243 28.216 161.219 28.216Z" fill="#322F2A"/>
</svg>
